<?xml version="1.0" encoding="UTF-8"?>
<svg width="237.939394px" height="52px" viewBox="0 0 237.939394 52" version="1.1" xmlns="http://www.w3.org/2000/svg" xmlns:xlink="http://www.w3.org/1999/xlink">
    <g id="Page-1" stroke="none" stroke-width="1" fill="none" fill-rule="evenodd">
        <g id="Group-11">
            <g id="Group-2" transform="translate(-0.000000, 0.000000)">
                <path d="M10.3971119,43.2910681 C12.3721905,43.2910681 14.1190171,43.0499263 15.6375917,42.5676425 C17.1561663,42.0853587 18.4325143,41.4083065 19.4666356,40.5364859 C20.500757,39.6646652 21.2786771,38.6259002 21.8003959,37.4201908 C22.3221148,36.2144813 22.5829743,34.8974757 22.5829743,33.4691738 C22.5829743,32.3005631 22.3919879,31.2988968 22.0100151,30.4641749 C21.6280424,29.629453 21.1202981,28.9199394 20.4867823,28.335634 C19.8532666,27.7513287 19.1359031,27.2597703 18.334692,26.8609587 C17.5334808,26.4621471 16.7136369,26.1143463 15.8751601,25.8175563 C15.0366834,25.5207663 14.2168394,25.2518004 13.4156283,25.0106585 C12.6144171,24.7695166 11.8970537,24.5144627 11.2635379,24.2454967 C10.6300221,23.9765308 10.1222779,23.6658287 9.74030511,23.3133906 C9.35833236,22.9609525 9.16734599,22.5157674 9.16734599,21.9778356 C9.16734599,21.2358605 9.46081286,20.6561925 10.0477466,20.2388316 C10.6346803,19.8214706 11.4778153,19.6127902 12.5771515,19.6127902 C13.341097,19.6127902 14.0211948,19.7008997 14.617445,19.8771188 C15.2136951,20.0533378 15.7493886,20.2434689 16.2245254,20.4475121 C16.6996623,20.6515552 17.1421917,20.8416863 17.5521137,21.0179054 C17.9620356,21.1941244 18.3719576,21.282234 18.7818796,21.282234 C19.1731687,21.282234 19.4945848,21.2080365 19.7461279,21.0596415 C19.9976709,20.9112465 20.2352393,20.6608299 20.4588331,20.3083917 L20.4588331,20.3083917 L22.4152789,17.2755688 C21.8749272,16.7376369 21.2507278,16.2414411 20.5426808,15.7869814 C19.8346337,15.3325217 19.0520554,14.9383475 18.1949458,14.6044587 C17.3378363,14.27057 16.42017,14.0108787 15.4419471,13.825385 C14.4637242,13.6398912 13.4528939,13.5471443 12.4094562,13.5471443 C10.490276,13.5471443 8.81332246,13.7929236 7.37859555,14.284482 C5.94386864,14.7760405 4.75136835,15.4391806 3.80109468,16.2739026 C2.85082101,17.1086245 2.13811576,18.0778293 1.66297892,19.1815172 C1.18784209,20.285205 0.95027367,21.4491783 0.95027367,22.6734371 C0.95027367,23.9904428 1.14591825,25.11268 1.53720741,26.0401488 C1.92849656,26.9676176 2.44089903,27.7513287 3.07441481,28.3912822 C3.70793059,29.0312356 4.42995225,29.5598928 5.2404798,29.9772538 C6.05100734,30.3946147 6.87550949,30.7516902 7.71398626,31.0484802 C8.55246303,31.3452702 9.37696518,31.6095988 10.1874927,31.841466 C10.9980203,32.0733332 11.7200419,32.3237498 12.3535577,32.5927158 C12.9870735,32.8616817 13.499476,33.1816584 13.8907651,33.5526459 C14.2820543,33.9236335 14.4776988,34.3966425 14.4776988,34.9716732 C14.4776988,35.2870126 14.412484,35.5930773 14.2820543,35.8898673 C14.1516245,36.1866573 13.9466636,36.4556232 13.6671713,36.6967651 C13.387679,36.937907 13.0150227,37.1280381 12.5492023,37.2671584 C12.0833819,37.4062787 11.5150809,37.4758389 10.8442995,37.4758389 C9.89402585,37.4758389 9.10678933,37.3645426 8.48258996,37.1419501 C7.85839059,36.9193576 7.31338069,36.6782157 6.84756027,36.4185245 C6.38173984,36.1588332 5.94852684,35.9176913 5.54792128,35.6950988 C5.14731571,35.4725063 4.6954699,35.3612101 4.19238384,35.3612101 C3.65203214,35.3612101 3.21416094,35.467869 2.87877023,35.6811868 C2.54337953,35.8945046 2.25457086,36.1866573 2.01234424,36.5576448 L2.01234424,36.5576448 L0,39.729588 C0.558984511,40.2304212 1.22976593,40.6987929 2.01234424,41.1347032 C2.79492256,41.5706136 3.64737394,41.9462384 4.56969838,42.2615778 C5.49202283,42.5769172 6.4469547,42.8273338 7.434494,43.0128275 C8.42203331,43.1983213 9.40957261,43.2910681 10.3971119,43.2910681 Z M36.4457901,52 C37.2656341,52 37.8618842,51.865517 38.2345406,51.5965511 C38.6071969,51.3275851 38.9239548,50.9055868 39.1848143,50.3305562 L39.1848143,50.3305562 L54.6686852,13.9923293 L47.6813788,13.9923293 C47.1782928,13.9923293 46.7078141,14.136087 46.2699429,14.4236023 C45.8320717,14.7111177 45.5386049,15.0681931 45.3895423,15.4948288 L45.3895423,15.4948288 L41.0853616,27.876537 C40.8804006,28.470117 40.6661232,29.0544224 40.4425294,29.629453 C40.2189356,30.2044836 40.0139746,30.788789 39.8276464,31.382369 C39.5481542,30.2323077 39.1848143,29.0822464 38.7376266,27.9321851 L38.7376266,27.9321851 L33.9862583,15.4948288 C33.8371958,15.0867425 33.5763363,14.7343044 33.20368,14.4375144 C32.8310236,14.1407244 32.3093048,13.9923293 31.6385233,13.9923293 L31.6385233,13.9923293 L23.9804355,13.9923293 L35.5514149,40.3138934 L29.9615698,52 L36.4457901,52 Z M66.910446,42.8458831 L66.910446,21.9778356 C67.525329,21.3842555 68.1821358,20.9112465 68.8808664,20.5588083 C69.5795971,20.2063702 70.3202515,20.0301511 71.1028299,20.0301511 C72.3698614,20.0301511 73.3294515,20.3640399 73.9816001,21.0318174 C74.6337487,21.6995949 74.959823,22.8589309 74.959823,24.5098253 L74.959823,24.5098253 L74.959823,42.8458831 L83.6240829,42.8458831 L83.6240829,24.5098253 C83.6240829,23.062974 84.0107139,21.9546488 84.7839758,21.1848497 C85.5572377,20.4150507 86.5308024,20.0301511 87.7046698,20.0301511 C90.2759986,20.0301511 91.561663,21.5233759 91.561663,24.5098253 L91.561663,24.5098253 L91.561663,42.8458831 L100.225923,42.8458831 L100.225923,24.5098253 C100.225923,22.7847334 100.002329,21.2404979 99.5551415,19.8771188 C99.1079539,18.5137397 98.4511471,17.3636784 97.5847211,16.4269349 C96.7182951,15.4901914 95.6422499,14.7760405 94.3565855,14.284482 C93.0709212,13.7929236 91.5989286,13.5471443 89.9406079,13.5471443 C89.0462327,13.5471443 88.1471993,13.6398912 87.2435076,13.825385 C86.339816,14.0108787 85.4827064,14.298394 84.6721789,14.6879309 C83.8616513,15.0774678 83.1070222,15.5875757 82.4082916,16.2182544 C81.709561,16.8489332 81.117969,17.6094576 80.6335158,18.4998276 C80.0372656,16.9973282 79.1661814,15.7962561 78.0202632,14.8966114 C76.8743449,13.9969667 75.4256434,13.5471443 73.6741586,13.5471443 C72.8356818,13.5471443 72.0670781,13.6352539 71.3683475,13.8114729 C70.6696169,13.987692 70.0174683,14.2288339 69.4119017,14.5348986 C68.8063352,14.8409633 68.2426924,15.2026761 67.7209736,15.6200371 C67.1992547,16.037398 66.6961686,16.4964951 66.2117154,16.9973282 L66.2117154,16.9973282 L65.7365785,15.4391806 C65.587516,14.9568969 65.3313148,14.5951841 64.9679748,14.3540422 C64.6046349,14.1129003 64.1527891,13.9923293 63.6124374,13.9923293 L63.6124374,13.9923293 L58.2461861,13.9923293 L58.2461861,42.8458831 L66.910446,42.8458831 Z M115.318505,42.8458831 L115.318505,1.19326017 L106.654245,1.19326017 L106.654245,42.8458831 L115.318505,42.8458831 Z M126.945383,11.0986268 C127.672062,11.0986268 128.356818,10.9641438 128.999651,10.6951778 C129.642483,10.4262119 130.206126,10.0644991 130.690579,9.61003936 C131.175032,9.15557966 131.557005,8.62692245 131.836497,8.02406774 C132.115989,7.42121304 132.255735,6.77662223 132.255735,6.09029533 C132.255735,5.38541906 132.115989,4.72691623 131.836497,4.11478683 C131.557005,3.50265744 131.175032,2.96472554 130.690579,2.50099115 C130.206126,2.03725676 129.642483,1.67554394 128.999651,1.41585268 C128.356818,1.15616142 127.672062,1.02631579 126.945383,1.02631579 C126.237336,1.02631579 125.575871,1.15616142 124.960988,1.41585268 C124.346105,1.67554394 123.801095,2.03725676 123.325958,2.50099115 C122.850821,2.96472554 122.478165,3.50265744 122.207989,4.11478683 C121.937813,4.72691623 121.802725,5.38541906 121.802725,6.09029533 C121.802725,6.77662223 121.937813,7.42121304 122.207989,8.02406774 C122.478165,8.62692245 122.850821,9.15557966 123.325958,9.61003936 C123.801095,10.0644991 124.346105,10.4262119 124.960988,10.6951778 C125.575871,10.9641438 126.237336,11.0986268 126.945383,11.0986268 Z M131.249563,42.8458831 L131.249563,13.9923293 L122.585303,13.9923293 L122.585303,42.8458831 L131.249563,42.8458831 Z M148.186794,42.8458831 L148.186794,19.9466789 L154.726913,19.9466789 L154.726913,14.0479775 L147.907302,14.0479775 L147.907302,12.6845984 C147.907302,11.7385802 148.009782,10.9548691 148.214743,10.333465 C148.419704,9.71206092 148.722487,9.21122778 149.123093,8.83096558 C149.523699,8.45070338 150.022126,8.18637478 150.618377,8.03797977 C151.214627,7.88958477 151.894725,7.81538727 152.65867,7.81538727 C152.900897,7.81538727 153.147782,7.7875632 153.399325,7.73191508 C153.650868,7.67626695 153.87912,7.58815742 154.084081,7.46758647 C154.289042,7.34701553 154.461395,7.18934584 154.601141,6.9945774 C154.740887,6.79980895 154.820077,6.55402972 154.83871,6.25723972 L154.83871,6.25723972 L155.006405,2.05580614 C154.354256,1.87031238 153.725399,1.73582941 153.119832,1.65235722 C152.514266,1.56888503 151.857459,1.52714893 151.149412,1.52714893 C149.323396,1.52714893 147.693024,1.78684019 146.258297,2.30622271 C144.823571,2.82560522 143.607779,3.55830556 142.610923,4.50432372 C141.614068,5.45034188 140.850122,6.59112848 140.319087,7.92668352 C139.788052,9.26223857 139.522534,10.7554633 139.522534,12.4063577 L139.522534,12.4063577 L139.522534,14.0479775 L135.441947,14.0479775 L135.441947,17.4425132 C135.441947,18.0546426 135.64225,18.518377 136.042855,18.8337164 C136.443461,19.1490558 136.969838,19.380923 137.621987,19.529318 L137.621987,19.529318 L139.522534,19.9188549 L139.522534,42.8458831 L148.186794,42.8458831 Z M167.583557,52 C168.4034,52 168.999651,51.865517 169.372307,51.5965511 C169.744963,51.3275851 170.061721,50.9055868 170.322581,50.3305562 L170.322581,50.3305562 L185.806452,13.9923293 L178.819145,13.9923293 C178.316059,13.9923293 177.845581,14.136087 177.407709,14.4236023 C176.969838,14.7111177 176.676371,15.0681931 176.527309,15.4948288 L176.527309,15.4948288 L172.223128,27.876537 C172.018167,28.470117 171.80389,29.0544224 171.580296,29.629453 C171.356702,30.2044836 171.151741,30.788789 170.965413,31.382369 C170.685921,30.2323077 170.322581,29.0822464 169.875393,27.9321851 L169.875393,27.9321851 L165.124025,15.4948288 C164.974962,15.0867425 164.714103,14.7343044 164.341446,14.4375144 C163.96879,14.1407244 163.447071,13.9923293 162.77629,13.9923293 L162.77629,13.9923293 L155.118202,13.9923293 L166.689181,40.3138934 L161.099336,52 L167.583557,52 Z" id="symlify" fill="#131415" fill-rule="nonzero"></path>
                <ellipse id="Oval" fill="#24B47E" cx="126.842043" cy="5.81578947" rx="5.82787763" ry="5.81578947"></ellipse>
            </g>
            <path d="M197.586434,50.893617 C199.554196,50.893617 201.318091,50.6374438 202.878119,50.1250972 C204.438147,49.6127507 205.758852,48.929622 206.840235,48.0757111 C207.921618,47.2218002 208.750382,46.2465441 209.326529,45.1499428 C209.902675,44.0533415 210.190749,42.920786 210.190749,41.7522764 C210.190749,40.4938814 209.933699,39.4691883 209.419599,38.6781972 C208.905499,37.8872061 208.222987,37.2669971 207.372062,36.8175704 C206.521138,36.3681436 205.554985,36.0445563 204.473602,35.8468085 C203.392219,35.6490607 202.288676,35.5097384 201.162975,35.4288416 C200.037273,35.3479448 198.93373,35.2895193 197.852348,35.2535652 C196.770965,35.217611 195.804811,35.1277257 194.953887,34.9839091 C194.102963,34.8400925 193.420451,34.6018963 192.906351,34.2693205 C192.392251,33.9367447 192.1352,33.4468695 192.1352,32.799695 C192.1352,32.4041994 192.281453,31.9997153 192.573958,31.5862427 C192.866463,31.17277 193.296358,30.786263 193.86364,30.4267216 C194.980478,30.7323318 196.168227,30.8851369 197.426885,30.8851369 C198.898275,30.8851369 200.250004,30.6784006 201.482071,30.2649279 C202.714139,29.8514553 203.777794,29.258212 204.673037,28.4851979 C205.56828,27.7121838 206.26852,26.7818704 206.773756,25.6942576 C207.278992,24.6066448 207.531611,23.3976868 207.531611,22.0673835 C207.531611,20.6292178 207.230242,19.3258802 206.627504,18.1573705 L206.627504,18.1573705 L209.685513,17.7259208 C210.430071,17.5641272 210.802351,17.1866087 210.802351,16.5933654 L210.802351,16.5933654 L210.802351,14.8136353 L203.489721,14.8136353 C202.656524,14.3102773 201.730257,13.9282646 200.710921,13.667597 C199.691585,13.4069295 198.596906,13.2765957 197.426885,13.2765957 C195.937768,13.2765957 194.568312,13.4833321 193.318517,13.8968047 C192.068722,14.3102773 190.991771,14.8990264 190.087664,15.6630519 C189.183557,16.4270775 188.478885,17.3528966 187.973649,18.4405094 C187.468413,19.5281222 187.215795,20.7370803 187.215795,22.0673835 C187.215795,23.7392511 187.592506,25.1998882 188.345929,26.4492946 C189.099351,27.698701 190.140847,28.7009227 191.470416,29.4559597 C190.903133,29.7435929 190.406761,30.0761687 189.981299,30.4536872 C189.555836,30.8312057 189.196853,31.2267012 188.904348,31.6401739 C188.611842,32.0536465 188.394679,32.4716134 188.252859,32.8940746 C188.111038,33.3165358 188.040128,33.7255141 188.040128,34.1210097 C188.040128,35.1277257 188.266154,35.9321996 188.718208,36.5344315 C189.170261,37.1366634 189.777431,37.61755 190.539718,37.9770914 C189.068328,38.5343806 187.911603,39.2849234 187.069542,40.2287196 C186.227482,41.1725158 185.806452,42.3185541 185.806452,43.6668344 C185.806452,44.6196192 186.050206,45.5319556 186.537715,46.4038435 C187.025223,47.2757315 187.756486,48.0442513 188.731504,48.7094029 C189.706521,49.3745545 190.934156,49.9048781 192.41441,50.3003737 C193.894664,50.6958692 195.618672,50.893617 197.586434,50.893617 Z M197.426885,27.7031953 C196.487323,27.7031953 195.654127,27.5683673 194.927296,27.2987112 C194.200464,27.0290551 193.588863,26.6515366 193.09249,26.1661557 C192.596118,25.6807748 192.219407,25.1010143 191.962357,24.4268741 C191.705306,23.7527339 191.576781,23.0111797 191.576781,22.2022115 C191.576781,20.5303439 192.077586,19.2000407 193.079195,18.2113018 C194.080803,17.2225629 195.530034,16.7281934 197.426885,16.7281934 C199.341465,16.7281934 200.799559,17.2225629 201.801168,18.2113018 C202.802777,19.2000407 203.303581,20.5303439 203.303581,22.2022115 C203.303581,23.0111797 203.179488,23.7527339 202.931302,24.4268741 C202.683115,25.1010143 202.310836,25.6807748 201.814463,26.1661557 C201.318091,26.6515366 200.702057,27.0290551 199.966362,27.2987112 C199.230668,27.5683673 198.384175,27.7031953 197.426885,27.7031953 Z M197.666208,47.3880882 C196.354366,47.3880882 195.215369,47.2757315 194.249215,47.0510181 C193.283062,46.8263047 192.480888,46.5206945 191.842695,46.1341874 C191.204502,45.7476804 190.730289,45.2892651 190.420056,44.7589415 C190.109824,44.2286179 189.954707,43.6578459 189.954707,43.0466255 C189.954707,42.0758636 190.269372,41.2399298 190.898701,40.5388241 C191.528031,39.8377183 192.347932,39.2444749 193.358404,38.759094 C194.227056,38.9029106 195.140027,39.0017845 196.097316,39.0557157 C197.054606,39.1096469 197.994168,39.1590839 198.916003,39.2040265 C199.837837,39.2489692 200.715353,39.3253718 201.54855,39.4332342 C202.381746,39.5410966 203.117441,39.7073845 203.755634,39.9320979 C204.393828,40.1568113 204.899064,40.4759043 205.271343,40.889377 C205.643622,41.3028496 205.829762,41.8511503 205.829762,42.534279 C205.829762,43.2533618 205.643622,43.9095249 205.271343,44.5027682 C204.899064,45.0960116 204.362804,45.6083581 203.662565,46.0398078 C202.962325,46.4712575 202.106969,46.8038333 201.096496,47.0375353 C200.086024,47.2712372 198.942594,47.3880882 197.666208,47.3880882 Z M224.970972,41.4286891 C226.938735,41.4286891 228.715925,41.1006075 230.302544,40.4444444 C231.889164,39.7882813 233.23646,38.8489794 234.344434,37.6265385 C235.452409,36.4040977 236.303333,34.9299779 236.897207,33.2041791 C237.491081,31.4783802 237.788018,29.5368566 237.788018,27.379608 C237.788018,25.2403366 237.491081,23.3033072 236.897207,21.5685198 C236.303333,19.8337324 235.452409,18.3551183 234.344434,17.1326775 C233.23646,15.9102367 231.889164,14.9664404 230.302544,14.3012888 C228.715925,13.6361372 226.938735,13.3035614 224.970972,13.3035614 C223.00321,13.3035614 221.226019,13.6361372 219.6394,14.3012888 C218.052781,14.9664404 216.701053,15.9102367 215.584215,17.1326775 C214.467377,18.3551183 213.607589,19.8337324 213.004851,21.5685198 C212.402113,23.3033072 212.100744,25.2403366 212.100744,27.379608 C212.100744,29.5368566 212.402113,31.4783802 213.004851,33.2041791 C213.607589,34.9299779 214.467377,36.4040977 215.584215,37.6265385 C216.701053,38.8489794 218.052781,39.7882813 219.6394,40.4444444 C221.226019,41.1006075 223.00321,41.4286891 224.970972,41.4286891 Z M224.970972,37.6804698 C223.623676,37.6804698 222.453655,37.4467678 221.46091,36.979364 C220.468165,36.5119601 219.6394,35.8423142 218.974616,34.9704263 C218.309831,34.0985383 217.813459,33.0244083 217.485498,31.7480363 C217.157538,30.4716643 216.993558,29.02451 216.993558,27.4065736 C216.993558,25.7886372 217.157538,24.3369887 217.485498,23.0516282 C217.813459,21.7662676 218.309831,20.683149 218.974616,19.8022726 C219.6394,18.9213961 220.468165,18.2472559 221.46091,17.7798521 C222.453655,17.3124482 223.623676,17.0787463 224.970972,17.0787463 C227.630111,17.0787463 229.6156,17.9865884 230.927442,19.8022726 C232.239283,21.6179567 232.895204,24.1527238 232.895204,27.4065736 C232.895204,30.6424464 232.239283,33.1637306 230.927442,34.9704263 C229.6156,36.7771219 227.630111,37.6804698 224.970972,37.6804698 Z" id="go" fill="#24B47E" fill-rule="nonzero"></path>
        </g>
    </g>
</svg>