<?xml version="1.0" encoding="UTF-8"?>
<svg width="16px" height="16px" viewBox="0 0 16 16" version="1.1" xmlns="http://www.w3.org/2000/svg" xmlns:xlink="http://www.w3.org/1999/xlink">
    <g id="Page-1" stroke="none" stroke-width="1" fill="none" fill-rule="evenodd">
        <g id="linkedin" fill="#F6F6F6" fill-rule="nonzero">
            <path d="M3.578,5 L3.578,16 L1.55431223e-15,16 L1.55431223e-15,5 L3.578,5 Z M8.578,5 L8.578,7.103 C9.014,6.517 10.337,5 12.423,5 C12.667,5 12.875,5.027 13.065,5.065 C13.114,5.073 13.162,5.082 13.21,5.093 C13.25,5.104 13.286,5.117 13.324,5.129 C14.861,5.53 16,6.915 16,8.577 L16,8.577 L16,16 L12.423,16 L12.423,16 L12.423,9 C11.282,6.234 8.578,10 8.578,10 L8.578,10 L8.578,16 L5,16 L5,5 L8.578,5 Z M1.75,0 C2.71649831,0 3.5,0.783501688 3.5,1.75 C3.5,2.71649831 2.71649831,3.5 1.75,3.5 C0.783501688,3.5 0,2.71649831 0,1.75 C0,0.783501688 0.783501688,0 1.75,0 Z" id="Combined-Shape"></path>
        </g>
    </g>
</svg>