<?xml version="1.0" encoding="UTF-8"?>
<svg width="18px" height="14px" viewBox="0 0 18 14" version="1.1" xmlns="http://www.w3.org/2000/svg" xmlns:xlink="http://www.w3.org/1999/xlink">
    <g id="Page-1" stroke="none" stroke-width="1" fill="none" fill-rule="evenodd">
        <g id="twitter" fill="#F6F6F6" fill-rule="nonzero">
            <path d="M15.4232326,3.49420304 C16.1222702,2.99785771 16.7102926,2.37832134 17.1894484,1.66495923 L17.1894484,1.66424301 C16.5498577,1.94428777 15.869442,2.13050679 15.1589448,2.2207514 C15.8894964,1.78456914 16.4474373,1.09913989 16.7095763,0.273330136 C16.0284444,0.679430855 15.2764061,0.965921663 14.474948,1.12635651 C13.828195,0.437346123 12.9064109,0.0111910472 11.9008281,0.0111910472 C9.94982574,0.0111910472 8.37913989,1.59476898 8.37913989,3.5357442 C8.37913989,3.81507274 8.40277538,4.08365787 8.46078977,4.33935092 C5.53142126,4.19610552 2.93867946,2.79230056 1.19681535,0.652930456 C0.893135092,1.18078977 0.714078337,1.78456914 0.714078337,2.43418705 C0.714078337,3.65463789 1.34220943,4.73614069 2.2797506,5.36283933 C1.71321503,5.35209592 1.15813909,5.18736371 0.687577938,4.92880576 L0.687577938,4.96748201 C0.687577938,6.67998082 1.908745,8.10240767 3.51094484,8.43043965 C3.22373781,8.50922462 2.91146283,8.54646843 2.58701199,8.54646843 C2.36140048,8.54646843 2.13364029,8.53357634 1.92020464,8.48630536 C2.37644125,9.88151559 3.67281215,10.9078689 5.21270024,10.9415316 C4.01373621,11.8790727 2.49103757,12.4441759 0.842999201,12.4441759 C0.554359712,12.4441759 0.277179856,12.4312838 -1.90841214e-15,12.3961886 C1.5613749,13.4024876 3.41067306,13.9776179 5.40608153,13.9776179 C11.6250807,13.9776179 15.6782094,8.78926938 15.4232326,3.49420304 Z" id="Path"></path>
        </g>
    </g>
</svg>