<?xml version="1.0" encoding="UTF-8"?>
<svg width="42px" height="42px" viewBox="0 0 42 42" version="1.1" xmlns="http://www.w3.org/2000/svg" xmlns:xlink="http://www.w3.org/1999/xlink">
    <g id="Page-1" stroke="none" stroke-width="1" fill="none" fill-rule="evenodd">
        <g id="link" fill-rule="nonzero">
            <path d="M39.115026,2.89504668 C35.2682299,-0.965001833 29.0316331,-0.965001833 25.184837,2.89496432 L16.9522796,11.1558833 C12.9732458,15.1487898 13.3416399,21.5108192 16.9522796,25.1340626 C17.5569122,25.7407781 18.2258988,26.2354745 18.9323158,26.641791 L20.4348679,25.1340626 C21.4203714,24.1449992 21.0734834,22.9888132 21.0557532,22.1545176 C20.8394612,22.000656 20.6290792,21.8343569 20.4348679,21.6394765 C18.5819802,19.7803703 18.4986647,16.5932604 20.4348679,14.6503869 C20.722409,14.3618552 28.49275,6.56474499 28.6672611,6.38963269 C30.5879504,4.46232654 33.7116664,4.46232654 35.6323557,6.38963269 C37.5530449,8.31693883 37.5530449,11.4514162 35.6323557,13.3787223 L30.1907447,18.8390799 C30.3481002,19.712747 31.2924795,21.782301 30.8067049,25.1962497 C30.8304273,25.1728574 30.8588284,25.1577843 30.8824687,25.1341449 L39.115026,16.873226 C42.961658,13.0131774 42.961658,6.7550952 39.115026,2.89504668 Z" id="Path" fill="#24B47E"></path>
            <path d="M25.6741934,16.2383401 C25.0699113,15.631919 24.4011397,15.1374627 23.6952004,14.7313433 L22.1933153,16.2383401 C21.2080853,17.2267588 21.5548193,18.3823837 21.5725416,19.2162745 C21.7889017,19.3700614 21.9991902,19.5362798 22.1933153,19.7310656 C24.0453804,21.5894343 24.1286589,24.7748329 22.1933153,26.7167636 C21.9052455,27.0058139 13.4950175,35.4446667 13.3267375,35.6135195 C11.4069009,37.5398904 8.28457178,37.5398904 6.36473524,35.6135195 C4.4448987,33.6871487 4.4448987,30.5541924 6.36473524,28.6278216 L12.4417699,22.5301033 C12.2844842,21.6568602 11.3404422,19.5883105 11.8260831,16.1760185 C11.8023713,16.1993994 11.7738187,16.2146299 11.7501889,16.2382578 L2.8836931,25.1350961 C-0.961231035,28.9932714 -0.961231035,35.2483167 2.8836931,39.106492 C6.72878134,42.9645027 12.9625273,42.9645027 16.8076155,39.106492 L25.6741934,30.209736 C29.5776996,26.2929439 29.3643753,19.9409996 25.6741934,16.2383401 Z" id="Path" fill="#131415"></path>
        </g>
    </g>
</svg>